<?xml version="1.0" encoding="UTF-8"?>
<svg width="700pt" height="700pt" version="1.1" viewBox="0 0 700 700" xmlns="http://www.w3.org/2000/svg" xmlns:xlink="http://www.w3.org/1999/xlink">
 <defs>
  <symbol id="t" overflow="visible">
   <path fill="white" d="m0.28125-0.015625c-0.011719 0.011719-0.027344 0.015625-0.046875 0.015625h-0.046875c-0.054688 0-0.09375-0.0078125-0.125-0.03125-0.03125-0.03125-0.046875-0.070312-0.046875-0.125 0-0.050781 0.015625-0.085938 0.046875-0.10938 0.03125-0.03125 0.070312-0.046875 0.125-0.046875h0.046875c0.019531 0 0.035156 0.007812 0.046875 0.015625v0.0625c-0.011719-0.007813-0.027344-0.015625-0.046875-0.015625-0.011719-0.007812-0.027344-0.015625-0.046875-0.015625-0.023438 0-0.042969 0.011719-0.0625 0.03125-0.011719 0.023437-0.015625 0.046875-0.015625 0.078125s0.003906 0.058594 0.015625 0.078125c0.019531 0.023438 0.039062 0.03125 0.0625 0.03125h0.046875c0.019531-0.0078125 0.035156-0.019531 0.046875-0.03125z"/>
  </symbol>
  <symbol id="c" overflow="visible">
   <path fill="white" d="m0.20312-0.17188h-0.015625c0-0.007813-0.007812-0.015625-0.015625-0.015625-0.023437 0-0.039063 0.011719-0.046875 0.03125-0.011719 0.011719-0.015625 0.027344-0.015625 0.046875v0.10938h-0.078125v-0.23438h0.078125v0.046875c0.007813-0.019531 0.019531-0.03125 0.03125-0.03125 0.007813-0.007812 0.023437-0.015625 0.046875-0.015625h0.015625z"/>
  </symbol>
  <symbol id="a" overflow="visible">
   <path fill="white" d="m0.26562-0.125v0.03125h-0.17188c0 0.023438 0.0039062 0.039062 0.015625 0.046875h0.046875 0.046875c0.019531-0.0078125 0.039063-0.019531 0.0625-0.03125v0.0625c-0.023437 0.011719-0.042969 0.015625-0.0625 0.015625h-0.046875c-0.042969 0-0.078125-0.0078125-0.10938-0.03125-0.023438-0.019531-0.03125-0.046875-0.03125-0.078125 0-0.039063 0.0078125-0.070313 0.03125-0.09375 0.03125-0.019531 0.0625-0.03125 0.09375-0.03125 0.039063 0 0.070313 0.011719 0.09375 0.03125 0.019531 0.023437 0.03125 0.046875 0.03125 0.078125zm-0.078125-0.015625c0-0.019531-0.007812-0.03125-0.015625-0.03125 0-0.007813-0.011719-0.015625-0.03125-0.015625-0.011719 0-0.023437 0.007812-0.03125 0.015625-0.011719 0-0.015625 0.011719-0.015625 0.03125z"/>
  </symbol>
  <symbol id="f" overflow="visible">
   <path fill="white" d="m0.14062-0.10938c-0.011719 0-0.023437 0.007813-0.03125 0.015625-0.011719 0-0.015625 0.0078125-0.015625 0.015625v0.03125h0.03125c0.019531 0 0.035156-0.0039062 0.046875-0.015625 0.007813-0.0078125 0.015625-0.019531 0.015625-0.03125v-0.015625zm0.10938-0.03125v0.14062h-0.0625v-0.03125c-0.011719 0.011719-0.027344 0.023438-0.046875 0.03125h-0.046875c-0.023438 0-0.042969-0.0039062-0.0625-0.015625-0.011719-0.0078125-0.015625-0.03125-0.015625-0.0625 0-0.019531 0.0078125-0.035156 0.03125-0.046875 0.019531-0.007812 0.050781-0.015625 0.09375-0.015625h0.046875v-0.015625c0-0.007812-0.007812-0.015625-0.015625-0.015625-0.011719-0.007813-0.027344-0.015625-0.046875-0.015625h-0.0625c-0.011719 0-0.015625 0.007812-0.015625 0.015625v-0.0625h0.03125 0.0625c0.039063 0 0.066406 0.011719 0.078125 0.03125 0.019531 0.011719 0.03125 0.03125 0.03125 0.0625z"/>
  </symbol>
  <symbol id="b" overflow="visible">
   <path fill="white" d="m0.125-0.29688v0.0625h0.0625v0.046875h-0.0625v0.10938 0.03125h0.015625 0.046875v0.046875h-0.0625c-0.03125 0-0.054688-0.0039062-0.0625-0.015625-0.011719-0.019531-0.015625-0.039062-0.015625-0.0625v-0.10938h-0.046875v-0.046875h0.046875v-0.0625z"/>
  </symbol>
  <symbol id="i" overflow="visible">
   <path fill="white" d="m0.1875-0.20312v-0.125h0.078125v0.32812h-0.078125v-0.03125c0 0.011719-0.011719 0.023438-0.03125 0.03125h-0.03125c-0.03125 0-0.058594-0.0078125-0.078125-0.03125-0.023438-0.019531-0.03125-0.046875-0.03125-0.078125 0-0.039063 0.0078125-0.070313 0.03125-0.09375 0.019531-0.019531 0.046875-0.03125 0.078125-0.03125 0.007812 0 0.019531 0.007813 0.03125 0.015625 0.019531 0 0.03125 0.007812 0.03125 0.015625zm-0.046875 0.15625c0.019531 0 0.03125-0.0039062 0.03125-0.015625 0.007813-0.0078125 0.015625-0.023438 0.015625-0.046875 0-0.019531-0.007812-0.035156-0.015625-0.046875 0-0.019531-0.011719-0.03125-0.03125-0.03125-0.011719 0-0.023437 0.011719-0.03125 0.03125-0.011719 0.011719-0.015625 0.027344-0.015625 0.046875 0 0.023438 0.0039062 0.039062 0.015625 0.046875 0.007813 0.011719 0.019531 0.015625 0.03125 0.015625z"/>
  </symbol>
  <symbol id="h" overflow="visible">
   <path fill="white" d="m0.15625-0.046875c0.019531 0 0.03125-0.0039062 0.03125-0.015625 0.007812-0.0078125 0.015625-0.023438 0.015625-0.046875 0-0.019531-0.007813-0.035156-0.015625-0.046875 0-0.019531-0.011719-0.03125-0.03125-0.03125-0.011719 0-0.023438 0.011719-0.03125 0.03125-0.011719 0.011719-0.015625 0.027344-0.015625 0.046875 0 0.011719 0.003906 0.027344 0.015625 0.046875 0.007812 0.011719 0.019531 0.015625 0.03125 0.015625zm-0.046875-0.15625c0.007813-0.007813 0.019531-0.015625 0.03125-0.015625 0.019531-0.007812 0.035156-0.015625 0.046875-0.015625 0.03125 0 0.050781 0.011719 0.0625 0.03125 0.019531 0.023437 0.03125 0.054687 0.03125 0.09375 0 0.03125-0.011719 0.058594-0.03125 0.078125-0.011719 0.023438-0.03125 0.03125-0.0625 0.03125h-0.046875c-0.011719-0.0078125-0.023437-0.019531-0.03125-0.03125v0.03125h-0.078125v-0.32812h0.078125z"/>
  </symbol>
  <symbol id="g" overflow="visible">
   <path fill="white" d="m0-0.23438h0.078125l0.0625 0.15625 0.046875-0.15625h0.078125l-0.09375 0.25c-0.011719 0.03125-0.023437 0.050781-0.03125 0.0625-0.011719 0.0078125-0.027344 0.015625-0.046875 0.015625h-0.046875v-0.046875h0.015625c0.019531 0 0.03125-0.0078125 0.03125-0.015625 0 0 0.0039062-0.0078125 0.015625-0.015625v-0.015625z"/>
  </symbol>
  <symbol id="e" overflow="visible">
   <path fill="white" d="m0.03125-0.32812h0.078125v0.32812h-0.078125z"/>
  </symbol>
  <symbol id="s" overflow="visible">
   <path fill="white" d="m0.09375-0.125-0.078125-0.10938h0.078125l0.046875 0.0625 0.046875-0.0625h0.078125l-0.078125 0.10938 0.078125 0.125h-0.078125l-0.046875-0.078125-0.046875 0.078125h-0.09375z"/>
  </symbol>
  <symbol id="r" overflow="visible">
   <path fill="white" d="m0.1875-0.32812v0.0625h-0.046875-0.015625v0.015625 0.015625h0.0625v0.046875h-0.0625v0.1875h-0.078125v-0.1875h-0.046875v-0.046875h0.046875v-0.015625c0-0.019531 0.0039062-0.035156 0.015625-0.046875 0.019531-0.019531 0.046875-0.03125 0.078125-0.03125z"/>
  </symbol>
  <symbol id="d" overflow="visible">
   <path fill="white" d="m0.14062-0.1875c-0.011719 0-0.023437 0.007812-0.03125 0.015625-0.011719 0.011719-0.015625 0.03125-0.015625 0.0625 0 0.023438 0.0039062 0.039062 0.015625 0.046875 0.007813 0.011719 0.019531 0.015625 0.03125 0.015625 0.019531 0 0.035156-0.0039062 0.046875-0.015625 0.007812-0.0078125 0.015625-0.023438 0.015625-0.046875 0-0.03125-0.007813-0.050781-0.015625-0.0625-0.011719-0.007813-0.027344-0.015625-0.046875-0.015625zm0-0.046875c0.039063 0 0.070313 0.011719 0.09375 0.03125 0.019531 0.023437 0.03125 0.054687 0.03125 0.09375 0 0.03125-0.011719 0.058594-0.03125 0.078125-0.023437 0.023438-0.054687 0.03125-0.09375 0.03125-0.03125 0-0.0625-0.0078125-0.09375-0.03125-0.023438-0.019531-0.03125-0.046875-0.03125-0.078125 0-0.039063 0.0078125-0.070313 0.03125-0.09375 0.03125-0.019531 0.0625-0.03125 0.09375-0.03125z"/>
  </symbol>
  <symbol id="q" overflow="visible">
   <path fill="white" d="m0.25-0.1875c0.007812-0.019531 0.019531-0.03125 0.03125-0.03125 0.019531-0.007812 0.035156-0.015625 0.046875-0.015625 0.019531 0 0.035156 0.011719 0.046875 0.03125 0.019531 0.011719 0.03125 0.03125 0.03125 0.0625v0.14062h-0.078125v-0.125-0.015625c0-0.007813-0.007813-0.019531-0.015625-0.03125v-0.015625c-0.023438 0-0.039062 0.011719-0.046875 0.03125v0.046875 0.10938h-0.078125v-0.125c0-0.019531-0.007812-0.035156-0.015625-0.046875 0-0.007813-0.007813-0.015625-0.015625-0.015625-0.011719 0-0.023438 0.011719-0.03125 0.03125-0.011719 0.011719-0.015625 0.027344-0.015625 0.046875v0.10938h-0.078125v-0.23438h0.078125v0.03125c0.007813-0.007813 0.019531-0.015625 0.03125-0.015625 0.007813-0.007812 0.023437-0.015625 0.046875-0.015625 0.007812 0 0.019531 0.007813 0.03125 0.015625 0.007812 0 0.019531 0.011719 0.03125 0.03125z"/>
  </symbol>
  <symbol id="p" overflow="visible">
   <path fill="white" d="m0.26562-0.14062v0.14062h-0.078125v-0.10938-0.03125-0.03125h-0.015625c0-0.007813-0.007813-0.015625-0.015625-0.015625-0.011719 0-0.023438 0.011719-0.03125 0.03125-0.011719 0.011719-0.015625 0.027344-0.015625 0.046875v0.10938h-0.078125v-0.32812h0.078125v0.125c0.007813-0.007813 0.019531-0.015625 0.03125-0.015625 0.019531-0.007812 0.035156-0.015625 0.046875-0.015625 0.03125 0 0.050781 0.011719 0.0625 0.03125 0.007812 0.011719 0.015625 0.03125 0.015625 0.0625z"/>
  </symbol>
  <symbol id="o" overflow="visible">
   <path fill="white" d="m0.046875-0.3125h0.078125l0.10938 0.21875v-0.21875h0.078125v0.3125h-0.078125l-0.125-0.21875v0.21875h-0.0625z"/>
  </symbol>
  <symbol id="n" overflow="visible">
   <path fill="white" d="m0.03125-0.09375v-0.14062h0.078125v0.015625 0.0625 0.03125 0.046875 0.015625c0.007813 0 0.015625 0.0078125 0.015625 0.015625h0.015625c0.019531 0 0.03125-0.0039062 0.03125-0.015625 0.007813-0.019531 0.015625-0.039062 0.015625-0.0625v-0.10938h0.078125v0.23438h-0.078125v-0.03125c-0.011719 0.011719-0.023438 0.023438-0.03125 0.03125h-0.046875c-0.023438 0-0.042969-0.0039062-0.0625-0.015625-0.011719-0.019531-0.015625-0.046875-0.015625-0.078125z"/>
  </symbol>
  <symbol id="m" overflow="visible">
   <path fill="white" d="m0.26562-0.14062v0.14062h-0.078125v-0.10938-0.03125-0.03125h-0.015625c0-0.007813-0.007813-0.015625-0.015625-0.015625-0.011719 0-0.023438 0.011719-0.03125 0.03125-0.011719 0.011719-0.015625 0.027344-0.015625 0.046875v0.10938h-0.078125v-0.23438h0.078125v0.03125c0.007813-0.007813 0.019531-0.015625 0.03125-0.015625 0.019531-0.007812 0.035156-0.015625 0.046875-0.015625 0.03125 0 0.050781 0.011719 0.0625 0.03125 0.007812 0.011719 0.015625 0.03125 0.015625 0.0625z"/>
  </symbol>
  <symbol id="l" overflow="visible">
   <path fill="white" d="m0.046875-0.3125h0.125c0.039063 0 0.070313 0.011719 0.09375 0.03125 0.019531 0.011719 0.03125 0.039062 0.03125 0.078125 0 0.03125-0.011719 0.058594-0.03125 0.078125-0.023437 0.011719-0.054687 0.015625-0.09375 0.015625h-0.046875v0.10938h-0.078125zm0.078125 0.0625v0.078125h0.046875 0.03125c0.007813-0.007813 0.015625-0.019531 0.015625-0.03125 0-0.019531-0.007812-0.03125-0.015625-0.03125-0.011719-0.007813-0.023437-0.015625-0.03125-0.015625z"/>
  </symbol>
  <symbol id="k" overflow="visible">
   <path fill="white" d="m0.03125-0.23438h0.078125v0.23438c0 0.03125-0.011719 0.050781-0.03125 0.0625-0.011719 0.019531-0.03125 0.03125-0.0625 0.03125h-0.03125v-0.046875h0.015625c0.0078125 0 0.015625-0.0078125 0.015625-0.015625 0.0078125 0 0.015625-0.011719 0.015625-0.03125zm0-0.09375h0.078125v0.0625h-0.078125z"/>
  </symbol>
  <symbol id="j" overflow="visible">
   <path fill="white" d="m0.23438-0.23438v0.0625h-0.046875c0-0.007813-0.011719-0.015625-0.03125-0.015625-0.011719 0-0.027344 0.011719-0.046875 0.03125-0.011719 0.011719-0.015625 0.027344-0.015625 0.046875 0 0.011719 0.0039062 0.027344 0.015625 0.046875 0.019531 0.011719 0.035156 0.015625 0.046875 0.015625h0.046875c0.007813-0.0078125 0.019531-0.015625 0.03125-0.015625v0.0625h-0.046875-0.03125c-0.042969 0-0.078125-0.0078125-0.10938-0.03125-0.023438-0.019531-0.03125-0.046875-0.03125-0.078125 0-0.039063 0.0078125-0.070313 0.03125-0.09375 0.03125-0.019531 0.066406-0.03125 0.10938-0.03125h0.03125 0.046875z"/>
  </symbol>
 </defs>
 <g>
  <path fill="white" d="m0 287.09 303.3-251.66v172.78h396.7v157.76h-396.7v172.78z"/>
  <use y="540.023438" xlink:href="#t"/>
  <use x="0.3125" y="540.023438" xlink:href="#c"/>
  <use x="0.523438" y="540.023438" xlink:href="#a"/>
  <use x="0.8125" y="540.023438" xlink:href="#f"/>
  <use x="1.101562" y="540.023438" xlink:href="#b"/>
  <use x="1.304688" y="540.023438" xlink:href="#a"/>
  <use x="1.59375" y="540.023438" xlink:href="#i"/>
  <use x="2.050781" y="540.023438" xlink:href="#h"/>
  <use x="2.355469" y="540.023438" xlink:href="#g"/>
  <use x="2.78125" y="540.023438" xlink:href="#f"/>
  <use x="3.070312" y="540.023438" xlink:href="#e"/>
  <use x="3.214844" y="540.023438" xlink:href="#e"/>
  <use x="3.363281" y="540.023438" xlink:href="#a"/>
  <use x="3.652344" y="540.023438" xlink:href="#s"/>
  <use y="540.453125" xlink:href="#r"/>
  <use x="0.1875" y="540.453125" xlink:href="#c"/>
  <use x="0.394531" y="540.453125" xlink:href="#d"/>
  <use x="0.6875" y="540.453125" xlink:href="#q"/>
  <use x="1.28125" y="540.453125" xlink:href="#b"/>
  <use x="1.488281" y="540.453125" xlink:href="#p"/>
  <use x="1.789062" y="540.453125" xlink:href="#a"/>
  <use x="2.230469" y="540.453125" xlink:href="#o"/>
  <use x="2.585938" y="540.453125" xlink:href="#d"/>
  <use x="2.878906" y="540.453125" xlink:href="#n"/>
  <use x="3.183594" y="540.453125" xlink:href="#m"/>
  <use x="3.636719" y="540.453125" xlink:href="#l"/>
  <use x="3.949219" y="540.453125" xlink:href="#c"/>
  <use x="4.160156" y="540.453125" xlink:href="#d"/>
  <use x="4.453125" y="540.453125" xlink:href="#k"/>
  <use x="4.597656" y="540.453125" xlink:href="#a"/>
  <use x="4.886719" y="540.453125" xlink:href="#j"/>
  <use x="5.140625" y="540.453125" xlink:href="#b"/>
 </g>
</svg>
