<?xml version="1.0" encoding="iso-8859-1"?>
<!-- Uploaded to: SVG Repo, www.svgrepo.com, Generator: SVG Repo Mixer Tools -->
<svg xmlns="http://www.w3.org/2000/svg" xmlns:xlink="http://www.w3.org/1999/xlink" version="1.1" id="Layer_1"  viewBox="0 0 334.406 334.406" xml:space="preserve" width="512" height="512">
<g>
	<rect x="263.612" y="245.824" style="fill:#5CBBCF;" width="70.794" height="84.066"/>
	<rect x="263.612" y="245.824" style="fill:#4F9EAE;" width="35.397" height="84.066"/>
	<path style="fill:#387F9E;" d="M187.568,119.902c-6.037,0-11.241-3.566-13.62-8.707c-2.379,5.141-7.583,8.707-13.62,8.707   c-8.284,0-15-6.716-15-15V73.403c0-8.284,6.716-15,15-15h27.24c8.284,0,15,6.716,15,15v31.499   C202.568,113.186,195.852,119.902,187.568,119.902z"/>
	<path style="fill:#29556E;" d="M173.948,111.195c-2.379,5.141-7.583,8.707-13.62,8.707c-8.284,0-15-6.716-15-15V73.403   c0-8.284,6.716-15,15-15h13.62V111.195z"/>
	<polygon style="fill:#858EA4;" points="175.153,95.902 80.694,137.9 80.694,329.89 269.612,329.89 269.612,137.9  "/>
	<polygon style="fill:#707789;" points="175.153,95.902 80.694,137.9 80.694,329.89 175.153,329.89  "/>
	<path style="fill:#387F9E;" d="M175.153,221.826L175.153,221.826c-19.585,0-35.461,15.877-35.461,35.461v72.603h70.923v-72.603   C210.615,237.702,194.738,221.826,175.153,221.826z"/>
	<path style="fill:#29556E;" d="M175.153,221.826L175.153,221.826c-19.585,0-35.461,15.877-35.461,35.461v72.603h35.461V221.826z"/>
	<circle style="fill:#C6E5E4;" cx="175.153" cy="166.399" r="19.831"/>
	<path style="fill:#83CFE0;" d="M175.153,186.23c-10.953,0-19.831-8.879-19.831-19.831c0-10.953,8.879-19.831,19.831-19.831V186.23z   "/>
	<polygon style="fill:#858EA4;" points="9.951,46.275 9.951,329.89 91.693,329.89 91.693,46.275 50.822,4.516  "/>
	<polygon style="fill:#707789;" points="9.951,46.275 9.951,329.89 50.822,329.89 50.822,4.516  "/>
	<g>
		<path style="fill:#387F9E;" d="M87.164,141.263H14.48c-1.579,0-3.1,0.247-4.53,0.7v28.601c1.43,0.453,2.95,0.7,4.53,0.7h72.684    c1.579,0,3.1-0.247,4.529-0.699v-28.601C90.264,141.51,88.743,141.263,87.164,141.263z"/>
	</g>
	<g>
		<path style="fill:#29556E;" d="M50.821,141.263H14.48c-1.579,0-3.1,0.247-4.53,0.7v28.601c1.43,0.453,2.95,0.7,4.53,0.7h36.341    V141.263z"/>
	</g>
	<path style="fill:#387F9E;" d="M88,80.048H13.644C6.109,80.048,0,73.939,0,66.403s6.109-13.644,13.644-13.644H88   c7.536,0,13.644,6.109,13.644,13.644S95.535,80.048,88,80.048z"/>
	<path style="fill:#29556E;" d="M50.822,80.048H13.644C6.109,80.048,0,73.939,0,66.403s6.109-13.644,13.644-13.644h37.178V80.048z"/>
</g>















</svg>