<?xml version="1.0" encoding="iso-8859-1"?>
<!-- Uploaded to: SVG Repo, www.svgrepo.com, Generator: SVG Repo Mixer Tools -->
<svg xmlns="http://www.w3.org/2000/svg" xmlns:xlink="http://www.w3.org/1999/xlink" version="1.1" id="Layer_1"  viewBox="0 0 317.666 317.666" xml:space="preserve" width="512" height="512">
<g>
	<g>
		<g>
			<path style="fill:#707789;" d="M44.616,155.49L54.651,33.065c0.834-10.17,9.331-18,19.535-18h21.642     c10.204,0,18.702,7.829,19.535,18l10.035,122.425"/>
			<path style="fill:#858EA4;" d="M192.267,155.49l10.035-122.425c0.834-10.17,9.331-18,19.535-18h21.642     c10.204,0,18.702,7.829,19.535,18L273.05,155.49"/>
		</g>
	</g>
	<path style="fill:#29556E;" d="M116.776,95.492H53.239c-8.284,0-15-6.716-15-15s6.716-15,15-15h63.537c8.284,0,15,6.716,15,15   S125.06,95.492,116.776,95.492z"/>
	<path style="fill:#387F9E;" d="M264.427,95.492H200.89c-8.284,0-15-6.716-15-15s6.716-15,15-15h63.537c8.284,0,15,6.716,15,15   S272.712,95.492,264.427,95.492z"/>
	<path style="fill:#387F9E;" d="M309.666,302.601H8c-4.418,0-8-3.582-8-8V160.304c0-4.418,3.582-8,8-8h301.666c4.418,0,8,3.582,8,8   v134.297C317.666,299.02,314.085,302.601,309.666,302.601z"/>
	<path style="fill:#29556E;" d="M158.833,302.601H8c-4.418,0-8-3.582-8-8V160.304c0-4.418,3.582-8,8-8h150.833V302.601z"/>
	<g>
		<path style="fill:#83CFE0;" d="M88.966,242.453h-29.76c-8.284,0-15-6.716-15-15s6.716-15,15-15h29.76c8.284,0,15,6.716,15,15    S97.25,242.453,88.966,242.453z"/>
		<path style="fill:#C6E5E4;" d="M173.714,242.453h-29.761c-8.284,0-15-6.716-15-15s6.716-15,15-15h29.761c8.284,0,15,6.716,15,15    S181.998,242.453,173.714,242.453z"/>
		<path style="fill:#83CFE0;" d="M158.833,242.453h-14.88c-8.284,0-15-6.716-15-15s6.716-15,15-15h14.88V242.453z"/>
		<path style="fill:#C6E5E4;" d="M258.461,242.453h-29.76c-8.284,0-15-6.716-15-15s6.716-15,15-15h29.76c8.284,0,15,6.716,15,15    S266.745,242.453,258.461,242.453z"/>
	</g>
</g>















</svg>