<?xml version="1.0" encoding="iso-8859-1"?>
<!-- Uploaded to: SVG Repo, www.svgrepo.com, Generator: SVG Repo Mixer Tools -->
<svg xmlns="http://www.w3.org/2000/svg" xmlns:xlink="http://www.w3.org/1999/xlink" version="1.1" id="Layer_1"  viewBox="0 0 405.728 405.728" xml:space="preserve" width="512" height="512">
<g>
	<path style="fill:#5CBBCF;" d="M85.994,160.253v216.79c0,4.418,3.582,8,8,8h80.047c4.418,0,8-3.582,8-8V102.346   c0-6.529-7.399-10.309-12.689-6.482l-80.047,57.907C87.226,155.276,85.994,157.687,85.994,160.253z"/>
	<path style="fill:#4F9EAE;" d="M85.994,160.253v216.79c0,4.418,3.582,8,8,8h40.024l0-263.618l-44.713,32.346   C87.226,155.276,85.994,157.687,85.994,160.253z"/>
	<path style="fill:#5CBBCF;" d="M276.894,0L276.894,0c-27.375,0-49.566,22.191-49.566,49.566v330.478h99.132V49.566   C326.46,22.191,304.269,0,276.894,0z"/>
	<path style="fill:#4F9EAE;" d="M276.894,0L276.894,0c-27.375,0-49.566,22.191-49.566,49.566v330.478h49.566L276.894,0z"/>
	<path style="fill:#858EA4;" d="M352.433,375.728H53.294c-8.284,0-15,6.716-15,15s6.716,15,15,15h299.139c8.284,0,15-6.716,15-15   S360.717,375.728,352.433,375.728z"/>
	<path style="fill:#707789;" d="M202.864,375.728H53.294c-8.284,0-15,6.716-15,15s6.716,15,15,15h149.569V375.728z"/>
	<g>
		<path style="fill:#C6E5E4;" d="M276.894,97.478c-8.284,0-15-6.716-15-15V70.122c0-8.284,6.716-15,15-15s15,6.716,15,15v12.356    C291.894,90.762,285.178,97.478,276.894,97.478z"/>
		<path style="fill:#83CFE0;" d="M276.894,97.478c-8.284,0-15-6.716-15-15V70.122c0-8.284,6.716-15,15-15V97.478z"/>
	</g>
	<g>
		<path style="fill:#C6E5E4;" d="M276.894,169.883c-8.284,0-15-6.716-15-15v-12.356c0-8.284,6.716-15,15-15s15,6.716,15,15v12.356    C291.894,163.167,285.178,169.883,276.894,169.883z"/>
		<path style="fill:#83CFE0;" d="M276.894,169.883c-8.284,0-15-6.716-15-15v-12.356c0-8.284,6.716-15,15-15V169.883z"/>
	</g>
	<g>
		<path style="fill:#C6E5E4;" d="M276.894,242.287c-8.284,0-15-6.716-15-15v-12.356c0-8.284,6.716-15,15-15s15,6.716,15,15v12.356    C291.894,235.571,285.178,242.287,276.894,242.287z"/>
		<path style="fill:#83CFE0;" d="M276.894,242.287c-8.284,0-15-6.716-15-15v-12.356c0-8.284,6.716-15,15-15V242.287z"/>
	</g>
	<g>
		<path style="fill:#C6E5E4;" d="M276.894,314.692c-8.284,0-15-6.716-15-15v-12.356c0-8.284,6.716-15,15-15s15,6.716,15,15v12.356    C291.894,307.976,285.178,314.692,276.894,314.692z"/>
		<path style="fill:#83CFE0;" d="M276.894,314.692c-8.284,0-15-6.716-15-15v-12.356c0-8.284,6.716-15,15-15V314.692z"/>
	</g>
	<path style="fill:#C6E5E4;" d="M134.018,207.704c-8.284,0-15-6.716-15-15v-12.356c0-8.284,6.716-15,15-15s15,6.716,15,15v12.356   C149.018,200.988,142.302,207.704,134.018,207.704z"/>
	<path style="fill:#83CFE0;" d="M134.018,207.704c-8.284,0-15-6.716-15-15v-12.356c0-8.284,6.716-15,15-15V207.704z"/>
	<path style="fill:#C6E5E4;" d="M134.018,274.413c-8.284,0-15-6.716-15-15v-12.356c0-8.284,6.716-15,15-15s15,6.716,15,15v12.356   C149.018,267.697,142.302,274.413,134.018,274.413z"/>
	<path style="fill:#83CFE0;" d="M134.018,274.413c-8.284,0-15-6.716-15-15v-12.356c0-8.284,6.716-15,15-15V274.413z"/>
	<path style="fill:#C6E5E4;" d="M134.018,341.122c-8.284,0-15-6.716-15-15v-12.356c0-8.284,6.716-15,15-15s15,6.716,15,15v12.356   C149.018,334.406,142.302,341.122,134.018,341.122z"/>
	<path style="fill:#83CFE0;" d="M134.018,341.122c-8.284,0-15-6.716-15-15v-12.356c0-8.284,6.716-15,15-15V341.122z"/>
</g>















</svg>